<svg xmlns:xlink="http://www.w3.org/1999/xlink" xmlns="http://www.w3.org/2000/svg" height="200" viewBox="0 0 200 200" width="200" x="0px" y="0px" class="Toolbar__logo__EJY1f"><path d="M82.1,34.4V0H21.4l14.3,17.9v153.6v0.2c0,0,0,0-0.1-0.1L21.4,200h135.7l21.4-28.6H82.1V34.4z" fill="#C8AA6E"></path><path d="M181.3,107.1c0,22.3-9,42.4-23.6,57.1h13.1c12.6-15.6,20.2-35.5,20.2-57.1c0-50.2-40.9-91.1-91.1-91.1 c-3.6,0-7.2,0.2-10.7,0.6v9.8c3.5-0.5,7.1-0.7,10.7-0.7C144.9,25.8,181.3,62.3,181.3,107.1z" fill="#C8AA6E"></path><path d="M35.6,171.4c0,0,0.1,0.1,0.1,0.1l0.1-0.1H35.6z" fill="#C8AA6E"></path><path d="M28.6,50.8C16.3,66.3,8.9,85.9,8.9,107.1c0,21.3,7.4,40.9,19.6,56.4V146c-6.3-11.5-9.9-24.8-9.9-38.8s3.6-27.3,9.9-38.8 V50.8z" fill="#C8AA6E"></path><path d="M28.6,84.5c-2.3,7.1-3.6,14.7-3.6,22.6s1.3,15.5,3.6,22.6V84.5z" fill="#C8AA6E"></path><path d="M175,107.1c0-14.2-4-27.4-10.8-38.7l0-0.1c0,0-0.1,0-0.1,0c-31.9-0.4-31.9,24.6-31.9,24.6c0,57.1-42.9,65.2-42.9,65.2v2.7 v3.6h59.1C164.6,150.5,175,130.1,175,107.1z" fill="#C8AA6E"></path><path d="M95.7,147c2.2-1.1,4.4-2.3,6.4-3.7c2.5-1.7,4.9-3.6,7.2-5.6c2.5-2.4,4.9-5,6.9-7.9c2.3-3.2,4.1-6.7,5.5-10.4 c1.6-4.2,2.6-8.7,3.1-13.1c0.2-2.1,0.2-4.2,0.3-6.3c0-2.1,0-4.3,0.2-6.4c0.2-2.5,0.6-5,1.2-7.4c0.7-2.9,1.7-5.7,3-8.4 c1.4-2.9,3.2-5.6,5.5-8c2.5-2.6,5.5-4.7,8.7-6.1c4-1.8,8.4-2.6,12.7-2.9c0.8,0,1.6-0.1,2.5-0.1c-0.3-0.3-0.5-0.7-0.7-1 c-13.8-16.9-34.7-27.7-58.1-27.7c-3.6,0-7.2,0.3-10.7,0.8v70.6c0,0,0,46,0,46c0-0.1,1.7-0.6,1.8-0.6 C92.6,148.4,94.2,147.7,95.7,147z" fill="#C8AA6E"></path></svg>